<?xml version="1.0" encoding="utf-8"?>
<!-- Generator: Adobe Illustrator 25.0.0, SVG Export Plug-In . SVG Version: 6.00 Build 0)  -->
<svg version="1.1" id="Layer_1" xmlns="http://www.w3.org/2000/svg" xmlns:xlink="http://www.w3.org/1999/xlink" x="0px" y="0px"
	 viewBox="0 0 45 45" style="enable-background:new 0 0 45 45;" xml:space="preserve">
<style type="text/css">
	.st0{fill:#FFFFFF;}
</style>
<g>
	<path class="st0" d="M38.74,12.66H6.26l3.28,29.52C9.65,43.21,10.52,44,11.56,44h21.88c1.04,0,1.9-0.79,2.02-1.82L38.74,12.66z"/>
	<path class="st0" d="M38.61,3.12H6.39c-1.64,0-2.96,1.32-2.96,2.96l0,0c0,1.64,1.33,2.97,2.96,2.97h32.21
		c1.64,0,2.96-1.33,2.96-2.97l0,0C41.57,4.44,40.24,3.12,38.61,3.12z"/>
	<path class="st0" d="M24.62,3.12c0,1.16-0.95,2.11-2.12,2.11c-1.16,0-2.11-0.95-2.11-2.11C20.38,1.95,21.33,1,22.5,1
		C23.67,1,24.62,1.95,24.62,3.12z"/>
</g>
<g>
</g>
<g>
</g>
<g>
</g>
<g>
</g>
<g>
</g>
<g>
</g>
<g>
</g>
<g>
</g>
<g>
</g>
<g>
</g>
<g>
</g>
<g>
</g>
<g>
</g>
<g>
</g>
<g>
</g>
</svg>
