<?xml version="1.0" encoding="utf-8"?>
<!-- Generator: Adobe Illustrator 25.0.0, SVG Export Plug-In . SVG Version: 6.00 Build 0)  -->
<svg version="1.1" id="Layer_1" xmlns="http://www.w3.org/2000/svg" xmlns:xlink="http://www.w3.org/1999/xlink" x="0px" y="0px"
	 viewBox="0 0 440 480" style="enable-background:new 0 0 440 480;" xml:space="preserve">
<style type="text/css">
	.st0{fill:#EAF4FE;}
	.st1{fill:#FAD9C3;}
	.st2{fill:#435E78;}
	.st3{fill:#82A4C5;}
	.st4{opacity:0.05;fill:#FD2228;}
	.st5{fill:#2F2E59;}
	.st6{fill:#FFFFFF;}
	.st7{fill:#FDE6D2;}
	.st8{fill:#5395CE;}
	.st9{clip-path:url(#SVGID_2_);}
	.st10{fill:#79B388;}
	.st11{fill:none;stroke:#CDDBE8;stroke-width:20;stroke-linecap:round;stroke-linejoin:round;stroke-miterlimit:10;}
</style>
<g>
	<g>
		<g>
			<g>
				<path class="st0" d="M280.35,11.86c3.69-4.46,9.48-7.44,15.23-6.72c4.25,0.53,8.03,2.95,11.33,5.68
					c7.24,5.98,12.89,13.66,20.3,19.43c7.08,5.51,15.95,9.05,24.03,12.82c6.48,3.02,13.13,6.19,17.95,11.48
					c10.02,10.98,9.28,31.31-3.28,39.85c-4.59,4.21-10.77,6.85-17.01,7.68c-23.05,3.08-46.18-7.76-60.61-25.59
					C275.29,60.42,265.37,29.93,280.35,11.86z"/>
			</g>
			<g>
				<path class="st0" d="M431.92,259.5c-19.62,80.7-105.48,113.08-179.67,121.65c-9.82,1.13-19.7,1.77-29.58,1.75
					c-38.27-0.06-74.04-11.26-104.92-33.76C86,326.03,66.41,284.01,56.69,247.16c-4.62-17.52-7.35-35.54-8.12-53.64
					C46.39,142.32,60.44,84.82,94.7,45.42c22.67-26.07,60.51-44.74,95.3-34.15c27.4,8.35,46.84,31.9,66.29,52.93
					c19.99,21.61,42.13,41.98,68.8,54.45c22.03,10.3,46.75,15.02,67,28.48C427.34,170.58,441.91,218.37,431.92,259.5z"/>
			</g>
			<g>
				<path class="st0" d="M62.47,64.58c-0.1-0.29-0.19-0.47-0.23-0.56c-2.75-5.92-12.14-6.25-17.31-4.27
					c-15.87,6.08-25.9,24.98-25.91,41.22c0,6.53,1.95,13.3,6.55,17.95c3.57,3.6,7.76,5.58,11.77,4.84c3.01-0.55,5.06-2.49,6.39-3.95
					c6.15-6.71,6.79-13.53,10.7-24.38C58.16,85.14,64.82,71.25,62.47,64.58z"/>
			</g>
			<g>
				<path class="st0" d="M322.25,385.58c0.7,6.04-5.91,9.59-11.8,10.56c-4.63,0.76-10.22,0.53-13.51-3.21
					c-2.65-3.01-2.85-7.32-0.04-10.32c1.79-1.91,4.27-3,6.73-3.9C310.04,376.35,321.17,376.45,322.25,385.58z"/>
			</g>
			<g>
				<path class="st0" d="M76.15,43.23c-0.04,3.35-2.46,5.91-4.35,7.74c-2.12,2.05-3.18,3.08-4.71,2.99
					c-2.33-0.14-4.26-2.74-4.61-5.13c-0.26-1.79,0.36-3.24,0.71-3.85c0.92-1.58,2.34-2.78,3.77-3.71
					C70.75,38.81,76.19,38.87,76.15,43.23z"/>
			</g>
			<g>
				<path class="st0" d="M328.04,378.48c0.91-3.23,3.92-5.07,6.22-6.34c2.59-1.43,3.88-2.14,5.33-1.65
					c2.21,0.74,3.39,3.76,3.11,6.15c-0.22,1.79-1.19,3.04-1.69,3.53c-1.3,1.29-2.98,2.07-4.6,2.59
					C332.09,384.15,326.86,382.68,328.04,378.48z"/>
			</g>
		</g>
	</g>
	<path class="st1" d="M349.14,148.17c-1.3,5.33-4.83,10-9.18,13.58c-8.54,7.05-19.83,10.1-30.73,12.95l-7.73-37.7
		c4.38-2.17,8.88-4.12,13.47-5.84c5.02-1.89,10.26-3.52,15.66-3.62c5.4-0.1,11.04,1.51,14.72,5.27
		C349.27,136.82,350.45,142.84,349.14,148.17z"/>
	
		<ellipse transform="matrix(0.9826 -0.1856 0.1856 0.9826 -47.2488 62.7558)" class="st1" cx="311.64" cy="283.8" rx="7.09" ry="4.25"/>
	
		<ellipse transform="matrix(0.7999 -0.6002 0.6002 0.7999 -49.0005 224.4658)" class="st1" cx="312.08" cy="185.71" rx="6.06" ry="6.06"/>
	<path class="st2" d="M76.2,384.25c8.38,10.24,19.94,22.2,35.42,33.35c31.83,22.93,63.84,30.6,82.76,33.51
		c-5.78-10.3-21.09-34.36-51.48-50.94C114.55,384.7,88.05,383.9,76.2,384.25z"/>
	<path class="st1" d="M288.52,330.39c0.04,11.44-12.79,29.25-19.07,38.21c-14.11,20.12-32.84,30.24-53.58,41.73
		c-24.66,13.67-40.12,38.88-52.26,64.64H21.35c8.51-9.66,15.47-18.13,22.49-26.69c25.11-30.57,37.79-46.23,43.43-64.42
		c3.48-11.23,7.4-30.88,1.59-58.1c76.96-60.28,152.89-73.46,183.27-44.19C278.19,287.4,288.43,300.7,288.52,330.39z"/>
	<path class="st3" d="M194.38,451.11c-4.09,6.81-8.3,14.76-12.19,23.86H5c12.31-13.6,24.75-28.25,37.14-44.03
		c12.5-15.91,23.81-31.54,34.07-46.69c8.38,10.24,19.94,22.21,35.42,33.35C143.45,440.53,175.45,448.2,194.38,451.11z"/>
	<path class="st4" d="M141.61,346.33c0.1,10.1,8.29,18.28,18.42,18.3l111.97,0.32c3.47-4.97,7.8-11.41,11.16-17.85l-137.25-0.39
		C144.45,346.7,143.02,346.57,141.61,346.33z"/>
	<g>
		<path class="st5" d="M154.26,358.47l143.02,0.41c7.66,0.02,13.88-6.17,13.9-13.82l0.78-275c0.02-7.66-6.17-13.88-13.82-13.9
			l-143.02-0.41c-7.66-0.02-13.88,6.17-13.9,13.82l-0.78,275C140.41,352.23,146.6,358.45,154.26,358.47z"/>
		<g>
			<g>
				<circle class="st0" cx="220.92" cy="69.07" r="4.8"/>
				<circle class="st0" cx="234.5" cy="69.13" r="3.16"/>
			</g>
		</g>
		<path class="st0" d="M237.44,346.33c0,1.62-0.65,3.09-1.71,4.16c-1.06,1.07-2.53,1.73-4.15,1.73l-12.12,0.03
			c-3.24,0.01-5.88-2.61-5.89-5.86c0-1.62,0.65-3.09,1.71-4.16c1.06-1.07,2.53-1.73,4.15-1.73l12.12-0.03
			C234.79,340.46,237.43,343.09,237.44,346.33z"/>
	</g>
	
		<rect x="98.5" y="132.31" transform="matrix(2.843341e-03 -1 1 2.843341e-03 18.2418 432.9217)" class="st6" width="255.4" height="150.02"/>
	<g>
		<path class="st7" d="M138.62,144.03c-4.5-1.82-5.21-2.1-9.76-3.11c-1.81-0.4-3.67,0.43-4.57,2.04
			c-3.24,5.74-10.05,18.74-10.61,27.42c-0.06,0.97-0.21,3.26,0.39,5.31c1.37,4.67,5.41,3.99,5.82,3.92
			C124.43,178.84,135.64,159.51,138.62,144.03z"/>
		<path class="st1" d="M176.87,368.58c0.19-4.55,0.3-11.97-0.57-21c-5.06-52.53-33.61-59.57-34.5-96.48
			c-0.55-22.65,10.65-63.58,12.55-76.13c0.95-6.25,1.45-12.77-0.52-18.77c-1.96-6-6.9-11.37-13.13-12.1
			c-9.04-1.06-16.3,7.44-20.35,15.67c-7.59,15.43-10.37,32.73-15.74,49.07c-10.42,31.7-13.76,29.04-19.22,57.22
			c-1.11,5.74-4.82,26.33-2.69,53.35c1.6,20.33,5.94,37.15,10.07,49.48C120.81,368.79,148.84,368.69,176.87,368.58z"/>
	</g>
	<path class="st1" d="M337.29,289.68c2.49,5.65,0.67,11.07-0.5,14.54c-0.35,1.04-1.76,5.01-5.37,9.41
		c-3.92,4.78-8.79,10.72-16.46,10.84c-6.55,0.1-13.29-4.08-15.71-9.94c-2.69-6.5,0.75-13.08,1.58-14.68
		c3.91-7.48,10.59-9.08,11.37-15.83c0.26-2.31-0.28-4.26-0.71-5.44c2.48-0.45,9.83-1.47,17.07,2.47
		C330.53,282.13,335.04,284.59,337.29,289.68z"/>
	<path class="st7" d="M309.61,316.28c3.07,3.04,6.14,6.08,9.2,9.12c1.81-1.2,16.51-11,17.47-18.07c0.09-0.64,0.29-2.15-0.58-3.63
		c-2-3.37-7.84-3.62-8.44-3.65C320.69,299.78,313.84,306.42,309.61,316.28z"/>
	<path class="st1" d="M340.55,242.8c2.91,6.58,0.78,12.91-0.58,16.95c-0.41,1.22-2.05,5.84-6.26,10.97
		c-4.57,5.57-10.25,12.5-19.19,12.64c-7.64,0.12-15.49-4.76-18.31-11.58c-3.14-7.58,0.87-15.25,1.85-17.12
		c4.56-8.72,12.35-10.58,13.25-18.45c0.31-2.7-0.32-4.97-0.82-6.34c2.9-0.53,11.46-1.71,19.9,2.88
		C332.67,234,337.93,236.86,340.55,242.8z"/>
	<path class="st7" d="M308.28,273.81c3.58,3.55,7.15,7.09,10.73,10.64c2.12-1.39,19.24-12.83,20.36-21.07
		c0.1-0.75,0.34-2.5-0.68-4.23c-2.33-3.93-9.15-4.22-9.84-4.25C321.2,254.57,313.22,262.31,308.28,273.81z"/>
	<path class="st1" d="M341.7,192.55c2.91,6.58,0.78,12.91-0.58,16.95c-0.41,1.22-2.05,5.84-6.26,10.97
		c-4.57,5.57-10.25,12.5-19.19,12.64c-7.64,0.12-15.49-4.76-18.31-11.58c-3.14-7.58,0.87-15.25,1.85-17.12
		c4.56-8.72,12.35-10.58,13.25-18.45c0.31-2.7-0.32-4.97-0.82-6.34c2.9-0.53,11.46-1.71,19.9,2.88
		C333.83,183.75,339.08,186.62,341.7,192.55z"/>
	<path class="st7" d="M309.43,223.56c3.58,3.55,7.15,7.09,10.73,10.64c2.12-1.39,19.24-12.83,20.36-21.07
		c0.1-0.75,0.34-2.5-0.68-4.23c-2.33-3.93-9.15-4.22-9.84-4.25C322.35,204.33,314.37,212.07,309.43,223.56z"/>
	<g>
		<g>
			<g>
				<circle class="st8" cx="226.2" cy="161.07" r="52.46"/>
				<g>
					<defs>
						<circle id="SVGID_1_" cx="226.2" cy="161.07" r="39.85"/>
					</defs>
					<clipPath id="SVGID_2_">
						<use xlink:href="#SVGID_1_"  style="overflow:visible;"/>
					</clipPath>
					<g class="st9">
						<g>
							<path class="st6" d="M261.84,200.92h-71.23c0.86-14.11,9.97-26.03,22.54-31c3.74,2.52,8.24,4,13.07,4
								c4.84,0,9.34-1.47,13.07-4C251.88,174.89,260.98,186.81,261.84,200.92z"/>
							<path class="st6" d="M245.24,150.49c0,5.79-2.6,10.98-6.69,14.47c-1.56,1.33-3.33,2.41-5.26,3.19
								c-2.18,0.88-4.57,1.36-7.06,1.36s-4.88-0.48-7.06-1.36c-1.93-0.77-3.7-1.86-5.26-3.19c-4.09-3.49-6.69-8.68-6.69-14.47
								c0-10.49,8.53-19.02,19.02-19.02C236.71,131.47,245.24,140,245.24,150.49z"/>
						</g>
					</g>
				</g>
			</g>
			<g>
				<g>
					<circle class="st10" cx="259.81" cy="194.68" r="18.85"/>
				</g>
				<path class="st6" d="M262.31,192.18v-7.1c0-1.38-1.12-2.5-2.5-2.5s-2.5,1.12-2.5,2.5l0,7.1l-7.1,0c-1.38,0-2.5,1.12-2.5,2.5
					c0,1.38,1.12,2.5,2.5,2.5h7.1v7.1c0,1.38,1.12,2.5,2.5,2.5c0.69,0,1.32-0.28,1.77-0.73c0.45-0.45,0.73-1.08,0.73-1.77l0-7.1
					l7.1,0c0.69,0,1.32-0.28,1.77-0.73c0.45-0.45,0.73-1.08,0.73-1.77c0-1.38-1.12-2.5-2.5-2.5H262.31z"/>
			</g>
		</g>
		<g>
			<path class="st8" d="M268.87,306.15h-85.63c-5.97,0-10.8-4.84-10.8-10.8l0,0c0-5.97,4.84-10.8,10.8-10.8h85.63
				c5.97,0,10.8,4.84,10.8,10.8l0,0C279.67,301.31,274.84,306.15,268.87,306.15z"/>
		</g>
		<g>
			<g>
				<line class="st11" x1="182.88" y1="232.73" x2="271.14" y2="232.73"/>
				<line class="st11" x1="182.88" y1="249.31" x2="271.14" y2="249.31"/>
				<line class="st11" x1="199.25" y1="265.21" x2="254.77" y2="265.21"/>
			</g>
		</g>
	</g>
	<g>
		<path class="st6" d="M196.5,298.45l-0.66-1.98h-2.74l-0.64,1.98h-1.21l2.5-7.33h1.49l2.5,7.33H196.5z M194.5,292.21h-0.05
			l-1.06,3.23h2.16L194.5,292.21z"/>
		<path class="st6" d="M198.88,291.12h2.59c0.47,0,0.89,0.08,1.28,0.23c0.38,0.15,0.71,0.38,0.98,0.69c0.27,0.3,0.48,0.69,0.62,1.14
			s0.22,0.99,0.22,1.6s-0.07,1.14-0.22,1.6s-0.35,0.84-0.62,1.14c-0.27,0.3-0.59,0.53-0.98,0.69c-0.38,0.15-0.81,0.23-1.28,0.23
			h-2.59V291.12z M201.47,297.4c0.55,0,0.99-0.17,1.32-0.51s0.5-0.85,0.5-1.51v-1.18c0-0.67-0.17-1.17-0.5-1.51
			c-0.34-0.34-0.78-0.51-1.32-0.51h-1.41v5.23H201.47z"/>
		<path class="st6" d="M206.04,291.12h2.59c0.47,0,0.89,0.08,1.28,0.23c0.38,0.15,0.71,0.38,0.98,0.69c0.27,0.3,0.48,0.69,0.62,1.14
			s0.22,0.99,0.22,1.6s-0.07,1.14-0.22,1.6s-0.35,0.84-0.62,1.14c-0.27,0.3-0.59,0.53-0.98,0.69c-0.38,0.15-0.81,0.23-1.28,0.23
			h-2.59V291.12z M208.64,297.4c0.55,0,0.99-0.17,1.32-0.51s0.5-0.85,0.5-1.51v-1.18c0-0.67-0.17-1.17-0.5-1.51
			c-0.34-0.34-0.78-0.51-1.32-0.51h-1.41v5.23H208.64z"/>
		<path class="st6" d="M218.44,298.58c-0.96,0-1.71-0.32-2.26-0.97s-0.82-1.59-0.82-2.82c0-0.62,0.07-1.16,0.21-1.63
			s0.34-0.86,0.61-1.19c0.27-0.32,0.59-0.56,0.97-0.73c0.38-0.17,0.81-0.25,1.29-0.25c0.64,0,1.17,0.14,1.6,0.42
			c0.43,0.28,0.77,0.69,1.01,1.23l-1,0.55c-0.13-0.35-0.32-0.63-0.58-0.83s-0.61-0.31-1.03-0.31c-0.57,0-1.01,0.19-1.33,0.58
			c-0.32,0.39-0.48,0.92-0.48,1.6v1.12c0,0.68,0.16,1.21,0.48,1.6c0.32,0.39,0.77,0.58,1.33,0.58c0.44,0,0.8-0.11,1.08-0.34
			s0.48-0.52,0.61-0.88l0.96,0.58c-0.25,0.53-0.59,0.94-1.03,1.24S219.08,298.58,218.44,298.58z"/>
		<path class="st6" d="M225.04,298.58c-0.48,0-0.91-0.08-1.3-0.25c-0.39-0.16-0.72-0.41-1-0.72s-0.49-0.71-0.64-1.19
			c-0.15-0.47-0.23-1.02-0.23-1.63c0-0.62,0.08-1.16,0.23-1.63c0.15-0.47,0.36-0.87,0.64-1.19s0.61-0.56,1-0.72
			c0.39-0.17,0.82-0.25,1.3-0.25s0.91,0.08,1.3,0.25c0.39,0.16,0.72,0.41,1,0.72s0.49,0.71,0.64,1.19c0.15,0.47,0.23,1.02,0.23,1.63
			c0,0.62-0.08,1.16-0.23,1.63c-0.15,0.47-0.36,0.87-0.64,1.19s-0.61,0.56-1,0.72C225.95,298.49,225.52,298.58,225.04,298.58z
			 M225.04,297.53c0.28,0,0.54-0.05,0.77-0.15s0.43-0.24,0.6-0.43c0.16-0.19,0.29-0.41,0.38-0.68c0.09-0.27,0.14-0.57,0.14-0.91
			v-1.16c0-0.34-0.05-0.64-0.14-0.91c-0.09-0.27-0.22-0.49-0.38-0.68c-0.17-0.19-0.36-0.33-0.6-0.43s-0.49-0.15-0.77-0.15
			c-0.29,0-0.55,0.05-0.78,0.15c-0.23,0.1-0.43,0.24-0.59,0.43c-0.17,0.19-0.29,0.41-0.38,0.68c-0.09,0.27-0.14,0.57-0.14,0.91v1.16
			c0,0.34,0.04,0.64,0.14,0.91c0.09,0.27,0.22,0.49,0.38,0.68c0.16,0.19,0.36,0.33,0.59,0.43
			C224.5,297.48,224.75,297.53,225.04,297.53z"/>
		<path class="st6" d="M231.65,294.4l-0.81-1.55h-0.03v5.6h-1.13v-7.33H231l2.39,4.05l0.81,1.55h0.03v-5.6h1.13v7.33h-1.32
			L231.65,294.4z"/>
		<path class="st6" d="M239.89,292.17v6.28h-1.19v-6.28h-2.18v-1.05h5.55v1.05H239.89z"/>
		<path class="st6" d="M247.12,298.45l-0.66-1.98h-2.74l-0.64,1.98h-1.21l2.5-7.33h1.49l2.5,7.33H247.12z M245.12,292.21h-0.05
			l-1.06,3.23h2.16L245.12,292.21z"/>
		<path class="st6" d="M252.03,298.58c-0.96,0-1.71-0.32-2.26-0.97c-0.54-0.65-0.82-1.59-0.82-2.82c0-0.62,0.07-1.16,0.21-1.63
			s0.34-0.86,0.61-1.19c0.27-0.32,0.59-0.56,0.97-0.73c0.38-0.17,0.81-0.25,1.29-0.25c0.64,0,1.17,0.14,1.6,0.42
			c0.43,0.28,0.77,0.69,1.01,1.23l-1,0.55c-0.12-0.35-0.32-0.63-0.58-0.83s-0.61-0.31-1.03-0.31c-0.57,0-1.01,0.19-1.33,0.58
			c-0.32,0.39-0.48,0.92-0.48,1.6v1.12c0,0.68,0.16,1.21,0.48,1.6c0.32,0.39,0.77,0.58,1.33,0.58c0.44,0,0.8-0.11,1.08-0.34
			s0.48-0.52,0.61-0.88l0.96,0.58c-0.25,0.53-0.59,0.94-1.03,1.24C253.2,298.43,252.66,298.58,252.03,298.58z"/>
		<path class="st6" d="M258.65,292.17v6.28h-1.19v-6.28h-2.18v-1.05h5.55v1.05H258.65z"/>
	</g>
</g>
<g>
</g>
<g>
</g>
<g>
</g>
<g>
</g>
<g>
</g>
<g>
</g>
<g>
</g>
<g>
</g>
<g>
</g>
<g>
</g>
<g>
</g>
<g>
</g>
<g>
</g>
<g>
</g>
<g>
</g>
</svg>
